<?xml version="1.0" encoding="UTF-8"?><svg id="Layer_1" xmlns="http://www.w3.org/2000/svg" viewBox="0 0 200 200"><defs><style>.cls-1{fill:none;}.cls-1,.cls-2,.cls-3,.cls-4,.cls-5,.cls-6,.cls-7,.cls-8,.cls-9,.cls-10{stroke-width:0px;}.cls-2{fill:#719db2;}.cls-3{fill:#ff7373;}.cls-4{fill:#e53935;}.cls-5{fill:#ef5350;}.cls-6{fill:#c2e6f7;}.cls-7{fill:#c62828;}.cls-8{fill:#f4cd6e;}.cls-9{fill:#f4deb0;}.cls-10{fill:#99d5f2;}</style></defs><circle class="cls-2" cx="100" cy="100" r="100"/><circle class="cls-2" cx="36.23" cy="151.54" r="2.71"/><circle class="cls-2" cx="48.98" cy="151.54" r="2.71"/><circle class="cls-2" cx="61.74" cy="151.54" r="2.71"/><circle class="cls-2" cx="74.49" cy="151.54" r="2.71"/><circle class="cls-2" cx="87.25" cy="151.54" r="2.71"/><circle class="cls-2" cx="163.77" cy="151.54" r="2.71"/><circle class="cls-2" cx="151.02" cy="151.54" r="2.71"/><circle class="cls-2" cx="138.26" cy="151.54" r="2.71"/><circle class="cls-2" cx="125.51" cy="151.54" r="2.71"/><circle class="cls-2" cx="112.75" cy="151.54" r="2.71"/><circle class="cls-2" cx="100" cy="151.54" r="2.71"/><circle class="cls-6" cx="43.52" cy="157.99" r="2.4"/><circle class="cls-6" cx="56.15" cy="157.99" r="2.4"/><circle class="cls-6" cx="68.78" cy="157.99" r="2.4"/><circle class="cls-6" cx="81.41" cy="157.99" r="2.4"/><circle class="cls-6" cx="94.04" cy="157.99" r="2.4"/><circle class="cls-6" cx="157.2" cy="157.99" r="2.4"/><circle class="cls-6" cx="144.57" cy="157.99" r="2.4"/><circle class="cls-6" cx="131.94" cy="157.99" r="2.4"/><circle class="cls-6" cx="119.31" cy="157.99" r="2.4"/><circle class="cls-6" cx="106.68" cy="157.99" r="2.4"/><circle class="cls-10" cx="51.6" cy="163.92" r="2"/><circle class="cls-10" cx="63.77" cy="163.92" r="2"/><circle class="cls-10" cx="75.94" cy="163.92" r="2"/><circle class="cls-10" cx="88.11" cy="163.92" r="2"/><circle class="cls-10" cx="100.29" cy="163.92" r="2"/><circle class="cls-10" cx="148.97" cy="163.92" r="2"/><circle class="cls-10" cx="136.8" cy="163.92" r="2"/><circle class="cls-10" cx="124.63" cy="163.92" r="2"/><circle class="cls-10" cx="112.46" cy="163.92" r="2"/><circle class="cls-6" cx="58.9" cy="168.36" r="1.6"/><circle class="cls-6" cx="70.63" cy="168.36" r="1.6"/><circle class="cls-6" cx="82.35" cy="168.36" r="1.6"/><circle class="cls-6" cx="94.08" cy="168.36" r="1.6"/><circle class="cls-6" cx="105.8" cy="168.36" r="1.6"/><circle class="cls-6" cx="140.97" cy="168.36" r="1.6"/><circle class="cls-6" cx="129.25" cy="168.36" r="1.6"/><circle class="cls-6" cx="117.53" cy="168.36" r="1.6"/><circle class="cls-10" cx="67.29" cy="172" r="1.2"/><circle class="cls-10" cx="78.46" cy="172" r="1.2"/><circle class="cls-10" cx="89.64" cy="172" r="1.2"/><circle class="cls-10" cx="100.81" cy="172" r="1.2"/><circle class="cls-10" cx="134.34" cy="172" r="1.2"/><circle class="cls-10" cx="111.99" cy="172" r="1.2"/><circle class="cls-10" cx="123.16" cy="172" r="1.2"/><circle class="cls-6" cx="75.29" cy="175.2" r=".8"/><circle class="cls-6" cx="85.56" cy="175.2" r=".8"/><circle class="cls-6" cx="95.83" cy="175.2" r=".8"/><circle class="cls-6" cx="106.09" cy="175.2" r=".8"/><circle class="cls-6" cx="116.36" cy="175.2" r=".8"/><circle class="cls-6" cx="126.63" cy="175.2" r=".8"/><circle class="cls-10" cx="90.91" cy="178.64" r=".4"/><circle class="cls-10" cx="101.18" cy="178.64" r=".4"/><circle class="cls-10" cx="111.45" cy="178.64" r=".4"/><path class="cls-3" d="M56.32,44.5c-1.61,0-2.91-1.26-2.91-2.82v-5.63c0-1.56,1.3-2.82,2.91-2.82s2.91,1.26,2.91,2.82v5.63c0,1.56-1.3,2.82-2.91,2.82Z"/><path class="cls-3" d="M143.68,44.5c-1.61,0-2.91-1.26-2.91-2.82v-5.63c0-1.56,1.3-2.82,2.91-2.82s2.91,1.26,2.91,2.82v5.63c0,1.56-1.3,2.82-2.91,2.82Z"/><path class="cls-7" d="M73.79,78.17h5.82v19.86h-5.82v-19.86Z"/><path class="cls-7" d="M85.44,84.82h5.82v13.21h-5.82v-13.21Z"/><path class="cls-7" d="M97.09,86.76h5.82v11.27h-5.82v-11.27Z"/><path class="cls-7" d="M108.74,84.82h5.82v13.21h-5.82v-13.21Z"/><path class="cls-7" d="M120.38,78.17h5.82v19.86h-5.82v-19.86Z"/><path class="cls-7" d="M33.03,78.1h5.82v19.93h-5.82v-19.93Z"/><path class="cls-7" d="M21.38,84.8h5.82v13.23h-5.82v-13.23Z"/><path class="cls-7" d="M172.79,84.8h5.82v13.23h-5.82v-13.23Z"/><path class="cls-7" d="M161.15,78.1h5.82v19.93h-5.82v-19.93Z"/><path class="cls-4" d="M100,89.58c-20.9-.02-37.83-16.41-37.85-36.63h3.05c1.5-.01,2.75,1.09,2.88,2.54,1.43,17.06,16.88,29.77,34.51,28.38,15.65-1.23,28.07-13.25,29.34-28.38.13-1.44,1.39-2.55,2.88-2.54h3.05c-.02,20.22-16.96,36.6-37.85,36.63Z"/><path class="cls-4" d="M184.44,83.78c-15.47-1.43-27.67-13.35-29.01-28.33-.15-1.43-1.4-2.51-2.89-2.49h-3.04c.1,19,15.14,34.81,34.7,36.47l.24.02v-5.67Z"/><path class="cls-4" d="M15.56,83.78v5.67l.24-.02c19.56-1.67,34.6-17.47,34.7-36.47h-3.04c-1.48-.02-2.74,1.06-2.89,2.49-1.34,14.98-13.54,26.9-29.01,28.33h0Z"/><path class="cls-5" d="M15.56,98.03h168.88v11.27H15.56v-11.27Z"/><path class="cls-4" d="M164.06,103.66c-3.22,0-5.82-2.52-5.82-5.63h-29.12c0,3.11-2.61,5.63-5.82,5.63h-46.59c-3.22,0-5.82-2.52-5.82-5.63h-29.12c0,3.11-2.61,5.63-5.82,5.63H15.56v5.63h168.88v-5.63h-20.38Z"/><path class="cls-3" d="M126.21,131.84h34.94v14.09h-34.94v-14.09Z"/><path class="cls-3" d="M134.94,52.95h17.47v78.88h-17.47V52.95Z"/><path class="cls-5" d="M137.85,41.68h11.65v11.27h-11.65v-11.27Z"/><path class="cls-5" d="M152.41,126.2v5.63h-17.47V52.95h8.74v64.8c0,4.67,3.91,8.45,8.74,8.45Z"/><path class="cls-4" d="M143.68,44.5v-2.82h-5.82v11.27h11.65v-2.82c-3.22,0-5.82-2.52-5.82-5.63Z"/><path class="cls-5" d="M137.85,137.47c-3.22,0-5.82-2.52-5.82-5.63h-5.82v14.09h34.94v-8.45h-23.29Z"/><path class="cls-3" d="M38.85,131.84h34.94v14.09h-34.94v-14.09Z"/><path class="cls-3" d="M47.59,52.95h17.47v78.88h-17.47V52.95Z"/><path class="cls-5" d="M50.5,41.68h11.65v11.27h-11.65v-11.27Z"/><path class="cls-5" d="M65.06,126.2v5.63h-17.47V52.95h8.74v64.8c0,4.67,3.91,8.45,8.74,8.45Z"/><path class="cls-4" d="M56.32,44.5v-2.82h-5.82v11.27h11.65v-2.82c-3.22,0-5.82-2.52-5.82-5.63Z"/><path class="cls-5" d="M50.5,137.47c-3.22,0-5.82-2.52-5.82-5.63h-5.82v14.09h34.94v-8.45h-23.29Z"/><path class="cls-1" d="M100,80.5c-16.42,0-29.73-13.31-29.73-29.73s12.78-29.18,28.74-29.7c0-.04-.02-.07-.03-.11-16.03.51-28.91,13.71-28.91,29.86s13.4,29.88,29.88,29.88,29.35-12.88,29.86-28.9c-.04,0-.07-.02-.11-.03-.52,15.96-13.62,28.74-29.7,28.74Z"/><path class="cls-8" d="M124.04,47.97c-1.25.58-2.61.88-4,.88-1.66,0-3.3-.44-4.74-1.27-2.7-1.56-4.44-4.34-4.71-7.38-3.06-.28-5.83-2.03-7.38-4.71-1.56-2.7-1.67-5.97-.39-8.75-1.92-1.35-3.27-3.37-3.79-5.66-15.96.52-28.74,13.62-28.74,29.7s13.31,29.73,29.73,29.73,29.18-12.78,29.7-28.74c-2.29-.52-4.31-1.87-5.66-3.79Z"/><path class="cls-9" d="M99.01,21.07c.52,2.29,1.87,4.31,3.79,5.66-1.28,2.77-1.16,6.05.39,8.75,1.55,2.68,4.32,4.44,7.38,4.71.28,3.04,2.02,5.82,4.71,7.38,1.44.83,3.09,1.27,4.74,1.27,1.4,0,2.76-.3,4-.88,1.35,1.92,3.37,3.27,5.66,3.79.01-.33.02-.66.02-.99,0-.79-.04-1.56-.1-2.33-1.56-.57-2.85-1.74-3.57-3.29-.2-.43-.57-.74-1.03-.87-.45-.12-.94-.04-1.32.24-1.06.75-2.37,1.16-3.67,1.16-1.1,0-2.2-.29-3.16-.85-2.13-1.23-3.37-3.61-3.14-6.07.04-.47-.13-.93-.46-1.26-.33-.33-.8-.5-1.26-.46-.19.02-.38.03-.57.03-2.26,0-4.37-1.21-5.5-3.17-1.23-2.13-1.11-4.81.31-6.83.27-.38.36-.87.24-1.32-.12-.45-.44-.83-.87-1.03-1.56-.72-2.72-2.01-3.29-3.57-.77-.06-1.55-.1-2.33-.1-.33,0-.66.01-.99.02Z"/></svg>