<?xml version="1.0" encoding="UTF-8"?><svg id="Layer_1" xmlns="http://www.w3.org/2000/svg" viewBox="0 0 32 32"><defs><style>.cls-1{fill:none;}.cls-2{fill:#f4cd6e;}.cls-3{fill:#f4deb0;}.cls-4{fill:#ff7373;}.cls-5{fill:#c62828;}.cls-6{fill:#ef5350;}.cls-7{fill:#99d5f2;}.cls-8{fill:#e53935;}.cls-9{fill:#719db2;}.cls-10{fill:#c2e6f7;}</style></defs><circle class="cls-9" cx="16" cy="16" r="16"/><circle class="cls-9" cx="5.8" cy="24.25" r=".43"/><circle class="cls-9" cx="7.84" cy="24.25" r=".43"/><circle class="cls-9" cx="9.88" cy="24.25" r=".43"/><circle class="cls-9" cx="11.92" cy="24.25" r=".43"/><circle class="cls-9" cx="13.96" cy="24.25" r=".43"/><circle class="cls-9" cx="26.2" cy="24.25" r=".43"/><circle class="cls-9" cx="24.16" cy="24.25" r=".43"/><circle class="cls-9" cx="22.12" cy="24.25" r=".43"/><circle class="cls-9" cx="20.08" cy="24.25" r=".43"/><circle class="cls-9" cx="18.04" cy="24.25" r=".43"/><circle class="cls-9" cx="16" cy="24.25" r=".43"/><circle class="cls-10" cx="6.96" cy="25.28" r=".38"/><circle class="cls-10" cx="8.98" cy="25.28" r=".38"/><circle class="cls-10" cx="11" cy="25.28" r=".38"/><circle class="cls-10" cx="13.03" cy="25.28" r=".38"/><circle class="cls-10" cx="15.05" cy="25.28" r=".38"/><circle class="cls-10" cx="25.15" cy="25.28" r=".38"/><circle class="cls-10" cx="23.13" cy="25.28" r=".38"/><circle class="cls-10" cx="21.11" cy="25.28" r=".38"/><circle class="cls-10" cx="19.09" cy="25.28" r=".38"/><circle class="cls-10" cx="17.07" cy="25.28" r=".38"/><circle class="cls-7" cx="8.26" cy="26.23" r=".32"/><circle class="cls-7" cx="10.2" cy="26.23" r=".32"/><circle class="cls-7" cx="12.15" cy="26.23" r=".32"/><circle class="cls-7" cx="14.1" cy="26.23" r=".32"/><circle class="cls-7" cx="16.05" cy="26.23" r=".32"/><circle class="cls-7" cx="23.84" cy="26.23" r=".32"/><circle class="cls-7" cx="21.89" cy="26.23" r=".32"/><circle class="cls-7" cx="19.94" cy="26.23" r=".32"/><circle class="cls-7" cx="17.99" cy="26.23" r=".32"/><circle class="cls-10" cx="9.42" cy="26.94" r=".26"/><circle class="cls-10" cx="11.3" cy="26.94" r=".26"/><circle class="cls-10" cx="13.18" cy="26.94" r=".26"/><circle class="cls-10" cx="15.05" cy="26.94" r=".26"/><circle class="cls-10" cx="16.93" cy="26.94" r=".26"/><circle class="cls-10" cx="22.56" cy="26.94" r=".26"/><circle class="cls-10" cx="20.68" cy="26.94" r=".26"/><circle class="cls-10" cx="18.8" cy="26.94" r=".26"/><circle class="cls-7" cx="10.77" cy="27.52" r=".19"/><circle class="cls-7" cx="12.55" cy="27.52" r=".19"/><circle class="cls-7" cx="14.34" cy="27.52" r=".19"/><circle class="cls-7" cx="16.13" cy="27.52" r=".19"/><circle class="cls-7" cx="21.49" cy="27.52" r=".19"/><circle class="cls-7" cx="17.92" cy="27.52" r=".19"/><circle class="cls-7" cx="19.71" cy="27.52" r=".19"/><circle class="cls-10" cx="12.05" cy="28.03" r=".13"/><circle class="cls-10" cx="13.69" cy="28.03" r=".13"/><circle class="cls-10" cx="15.33" cy="28.03" r=".13"/><circle class="cls-10" cx="16.97" cy="28.03" r=".13"/><circle class="cls-10" cx="18.62" cy="28.03" r=".13"/><circle class="cls-10" cx="20.26" cy="28.03" r=".13"/><circle class="cls-7" cx="14.55" cy="28.58" r=".06"/><circle class="cls-7" cx="16.19" cy="28.58" r=".06"/><circle class="cls-7" cx="17.83" cy="28.58" r=".06"/><path class="cls-4" d="M9.01,7.12c-.26,0-.47-.2-.47-.45v-.9c0-.25.21-.45.47-.45s.47.2.47.45v.9c0,.25-.21.45-.47.45Z"/><path class="cls-4" d="M22.99,7.12c-.26,0-.47-.2-.47-.45v-.9c0-.25.21-.45.47-.45s.47.2.47.45v.9c0,.25-.21.45-.47.45Z"/><path class="cls-5" d="M11.81,12.51h.93v3.18h-.93v-3.18Z"/><path class="cls-5" d="M13.67,13.57h.93v2.11h-.93v-2.11Z"/><path class="cls-5" d="M15.53,13.88h.93v1.8h-.93s0-1.8,0-1.8Z"/><path class="cls-5" d="M17.4,13.57h.93v2.11h-.93v-2.11Z"/><path class="cls-5" d="M19.26,12.51h.93v3.18h-.93v-3.18Z"/><path class="cls-5" d="M5.28,12.5h.93v3.19h-.93v-3.19Z"/><path class="cls-5" d="M3.42,13.57h.93v2.12h-.93v-2.12Z"/><path class="cls-5" d="M27.65,13.57h.93v2.12h-.93v-2.12Z"/><path class="cls-5" d="M25.78,12.5h.93v3.19h-.93v-3.19Z"/><path class="cls-8" d="M16,14.33c-3.34,0-6.05-2.63-6.06-5.86h.49c.24,0,.44.17.46.41.23,2.73,2.7,4.76,5.52,4.54,2.5-.2,4.49-2.12,4.69-4.54.02-.23.22-.41.46-.41h.49c0,3.24-2.71,5.86-6.06,5.86h0Z"/><path class="cls-8" d="M29.51,13.4c-2.48-.23-4.43-2.14-4.64-4.53-.02-.23-.22-.4-.46-.4h-.49c.02,3.04,2.42,5.57,5.55,5.84h.04s0-.9,0-.9h0Z"/><path class="cls-8" d="M2.49,13.4v.91h.04c3.13-.27,5.54-2.8,5.55-5.84h-.49c-.24,0-.44.17-.46.4-.21,2.4-2.17,4.3-4.64,4.53h0Z"/><path class="cls-6" d="M2.49,15.68h27.02v1.8H2.49v-1.8Z"/><path class="cls-8" d="M26.25,16.59c-.52,0-.93-.4-.93-.9h-4.66c0,.5-.42.9-.93.9h-7.45c-.52,0-.93-.4-.93-.9h-4.66c0,.5-.42.9-.93.9h-3.26v.9h27.02v-.9h-3.26Z"/><path class="cls-4" d="M20.19,21.09h5.59v2.25h-5.59s0-2.25,0-2.25Z"/><path class="cls-4" d="M21.59,8.47h2.8v12.62h-2.8v-12.62Z"/><path class="cls-6" d="M22.06,6.67h1.86v1.8h-1.86v-1.8Z"/><path class="cls-6" d="M24.39,20.19v.9h-2.8v-12.62h1.4v10.37c0,.75.63,1.35,1.4,1.35h0Z"/><path class="cls-8" d="M22.99,7.12v-.45h-.93v1.8h1.86v-.45c-.52,0-.93-.4-.93-.9h0Z"/><path class="cls-6" d="M22.06,22c-.52,0-.93-.4-.93-.9h-.93v2.25h5.59v-1.35h-3.73Z"/><path class="cls-4" d="M6.22,21.09h5.59v2.25h-5.59s0-2.25,0-2.25Z"/><path class="cls-4" d="M7.61,8.47h2.8v12.62h-2.8s0-12.62,0-12.62Z"/><path class="cls-6" d="M8.08,6.67h1.86v1.8h-1.86v-1.8Z"/><path class="cls-6" d="M10.41,20.19v.9h-2.8v-12.62h1.4v10.37c0,.75.63,1.35,1.4,1.35h0Z"/><path class="cls-8" d="M9.01,7.12v-.45h-.93v1.8h1.86v-.45c-.52,0-.93-.4-.93-.9h0Z"/><path class="cls-6" d="M8.08,22c-.52,0-.93-.4-.93-.9h-.93v2.25h5.59v-1.35h-3.73Z"/><path class="cls-1" d="M16,12.88c-2.63,0-4.76-2.13-4.76-4.76s2.04-4.67,4.6-4.75c0,0,0-.01,0-.02-2.56.08-4.63,2.19-4.63,4.78s2.14,4.78,4.78,4.78,4.7-2.06,4.78-4.62c0,0-.01,0-.02,0-.08,2.55-2.18,4.6-4.75,4.6h0Z"/><path class="cls-2" d="M19.85,7.68c-.2.09-.42.14-.64.14-.27,0-.53-.07-.76-.2-.43-.25-.71-.69-.75-1.18-.49-.04-.93-.32-1.18-.75-.25-.43-.27-.96-.06-1.4-.31-.22-.52-.54-.61-.91-2.55.08-4.6,2.18-4.6,4.75s2.13,4.76,4.76,4.76,4.67-2.04,4.75-4.6c-.37-.08-.69-.3-.91-.61h0Z"/><path class="cls-3" d="M15.84,3.37c.08.37.3.69.61.91-.2.44-.19.97.06,1.4.25.43.69.71,1.18.75.04.49.32.93.75,1.18.23.13.49.2.76.2.22,0,.44-.05.64-.14.22.31.54.52.91.61,0-.05,0-.11,0-.16,0-.13,0-.25-.02-.37-.25-.09-.46-.28-.57-.53-.03-.07-.09-.12-.16-.14-.07-.02-.15,0-.21.04-.17.12-.38.19-.59.19-.18,0-.35-.05-.51-.14-.34-.2-.54-.58-.5-.97,0-.08-.02-.15-.07-.2-.05-.05-.13-.08-.2-.07-.03,0-.06,0-.09,0-.36,0-.7-.19-.88-.51-.2-.34-.18-.77.05-1.09.04-.06.06-.14.04-.21-.02-.07-.07-.13-.14-.16-.25-.12-.44-.32-.53-.57-.12,0-.25-.02-.37-.02-.05,0-.11,0-.16,0h0Z"/></svg>