<?xml version="1.0" encoding="UTF-8"?><svg id="Layer_1" xmlns="http://www.w3.org/2000/svg" xmlns:xlink="http://www.w3.org/1999/xlink" viewBox="0 0 100 100"><defs><style>.cls-1{clip-path:url(#clippath);}.cls-2,.cls-3{stroke-width:0px;}.cls-2,.cls-4{fill:none;}.cls-3{fill:#719db2;}.cls-4{stroke:#e3ebf0;stroke-linecap:round;stroke-linejoin:round;stroke-width:1.46px;}</style><clipPath id="clippath"><rect class="cls-2" x="25" y="25" width="50" height="50"/></clipPath></defs><circle class="cls-3" cx="50" cy="50" r="50"/><g id="g5301"><g id="g5303"><path id="path5305" class="cls-4" d="M47.13,51.56v-2.88"/></g><g id="g5307"><path id="path5309" class="cls-4" d="M38.05,51.56v-2.88"/></g><g id="g5311"><path id="path5313" class="cls-4" d="M59.98,57.62v2.49"/></g><g id="g5315"><g class="cls-1"><g id="g5317"><g id="g5323"><path id="path5325" class="cls-4" d="M49.5,55.1l-2.37-3.54-2.37,3.54c-.16.23.01.54.29.54h4.16c.28,0,.45-.31.29-.54Z"/></g><g id="g5327"><path id="path5329" class="cls-4" d="M40.42,55.1l-2.37-3.54-2.37,3.54c-.16.23.01.54.29.54h4.16c.28,0,.45-.31.29-.54Z"/></g><g id="g5331"><path id="path5333" class="cls-4" d="M36.46,63.91h-4.81"/></g><g id="g5335"><path id="path5337" class="cls-4" d="M53.53,63.91h-13.64"/></g><g id="g5339"><path id="path5341" class="cls-4" d="M53.53,69.33v-20.08c0-.31-.25-.57-.57-.57h-20.75c-.31,0-.57.25-.57.57v20.08"/></g><g id="g5343"><path id="path5345" class="cls-4" d="M27.04,74.27h45.92c.71,0,1.29-.58,1.29-1.29v-2.37c0-.71-.58-1.29-1.29-1.29H27.04c-.71,0-1.29.58-1.29,1.29v2.37c0,.71.58,1.29,1.29,1.29Z"/></g><g id="g5347"><path id="path5349" class="cls-4" d="M70.21,69.33v-23.85"/></g><g id="g5351"><path id="path5353" class="cls-4" d="M28.53,45.27v24.06"/></g><g id="g5355"><path id="path5357" class="cls-4" d="M66.16,41.43c0,2.23,1.81,4.04,4.04,4.04s4.04-1.81,4.04-4.04v-2.15"/></g><g id="g5359"><path id="path5361" class="cls-4" d="M58.08,39.28v2.15c0,2.23,1.81,4.04,4.04,4.04s4.04-1.81,4.04-4.04v-2.15"/></g><g id="g5363"><path id="path5365" class="cls-4" d="M50,39.28v2.15c0,2.23,1.81,4.04,4.04,4.04s4.04-1.81,4.04-4.04"/></g><g id="g5367"><path id="path5369" class="cls-4" d="M41.92,39.28v2.15c0,2.23,1.81,4.04,4.04,4.04s4.04-1.81,4.04-4.04"/></g><g id="g5371"><path id="path5373" class="cls-4" d="M33.84,39.28v2.15c0,2.23,1.81,4.04,4.04,4.04s4.04-1.81,4.04-4.04"/></g><g id="g5375"><path id="path5377" class="cls-4" d="M25.75,39.28v2.15c0,2.23,1.81,4.04,4.04,4.04s4.04-1.81,4.04-4.04"/></g><g id="g5379"><path id="path5381" class="cls-4" d="M58.16,33.9h-16.32c-.86,0-1.56-.7-1.56-1.56v-5.05c0-.86.7-1.56,1.56-1.56h16.32c.86,0,1.56.7,1.56,1.56v5.05c0,.86-.7,1.56-1.56,1.56Z"/></g><g id="g5383"><path id="path5385" class="cls-4" d="M36.85,29.82h-4.45c-1.16,0-2.22.65-2.74,1.69l-3.9,7.77h48.49l-3.9-7.77c-.52-1.04-1.58-1.69-2.74-1.69h-4.45"/></g><g id="g5387"><path id="path5389" class="cls-4" d="M66.8,69.33v-20.08c0-.31-.25-.57-.57-.57h-8.86c-.31,0-.57.25-.57.57v20.08"/></g></g></g></g></g></svg>